PathFileType	4	(X/Y/Z)	RBDS09\RBDS09runT25.trc
DataRate	CameraRate	NumFrames	NumMarkers	Units	OrigDataRate	OrigDataStartFrame	OrigNumFrames
150.000000	150.000000	4	33	mm	150.000000	0	4500
Frame#	Time	L.ASIS			L.Heel.Bottom			L.Heel.Lateral			L.Heel.Top			L.Iliac.Crest			L.MT1			L.MT5			L.PSIS			L.Shank.Bottom.Lateral			L.Shank.Bottom.Medial			L.Shank.Top.Lateral			L.Shank.Top.Medial			L.Thigh.Bottom.Lateral			L.Thigh.Bottom.Medial			L.Thigh.Top.Lateral			L.Thigh.Top.Medial			R.ASIS			R.ASY			R.Heel.Bottom			R.Heel.Lateral			R.Heel.Top			R.Iliac.Crest			R.MT1			R.MT5			R.PSIS			R.Shank.Bottom.Lateral			R.Shank.Bottom.Medial			R.Shank.Top.Lateral			R.Shank.Top.Medial			R.Thigh.Bottom.Lateral			R.Thigh.Bottom.Medial			R.Thigh.Top.Lateral			R.Thigh.Top.Medial			
		X1	Y1	Z1	X2	Y2	Z2	X3	Y3	Z3	X4	Y4	Z4	X5	Y5	Z5	X6	Y6	Z6	X7	Y7	Z7	X8	Y8	Z8	X9	Y9	Z9	X10	Y10	Z10	X11	Y11	Z11	X12	Y12	Z12	X13	Y13	Z13	X14	Y14	Z14	X15	Y15	Z15	X16	Y16	Z16	X17	Y17	Z17	X18	Y18	Z18	X19	Y19	Z19	X20	Y20	Z20	X21	Y21	Z21	X22	Y22	Z22	X23	Y23	Z23	X24	Y24	Z24	X25	Y25	Z25	X26	Y26	Z26	X27	Y27	Z27	X28	Y28	Z28	X29	Y29	Z29	X30	Y30	Z30	X31	Y31	Z31	X32	Y32	Z32	X33	Y33	Z33	

1	0	2248.129113467621	1008.883012049642	899.9639893796877	1666.009943492483	283.0665025269817	1018.514405961884	1689.874237174327	272.2626991275671	968.1075870444978	1708.279447359936	306.6466048993932	1009.291719390889	2197.878228698731	1085.04516679875	880.9548350047527	1805.585215113672	119.461106485257	1005.084375931671	1754.995055993267	153.5401904711257	913.2499903446015	2094.665544628201	1043.141644838646	999.2921150588404	1796.772683844447	342.6804322292613	934.572649651404	1778.490940819972	363.6831805257683	980.8876849169443	1842.881215694973	407.474685177215	922.2127421683608	1825.970757542722	428.6696201386457	968.9806495970995	2058.07673103966	669.1334345354022	894.7957687049619	2022.652493208227	683.5897113274373	957.0790148193554	2076.650299483868	777.293965050821	882.2800744757131	2046.761707244565	790.6269882528198	943.8610693168251	2258.020133460385	1010.305657502689	1131.686832103206	2454.010783668724	146.7689279332111	1119.601432025295	2291.084914130905	81.84355063497135	1068.372007627598	2315.704540573423	97.01277553732395	1120.691227197574	2298.092552798528	129.5567829933101	1075.929251997785	2191.117421731755	1078.65069323234	1183.086909064719	2500.289802233753	109.5153754268343	1074.553020672204	2452.279662989521	80.08104502415183	1170.064639129127	2094.316569089257	1037.595844706887	1072.817706691151	2313.003782795084	228.4176229495924	1134.933854639878	2298.623352775111	233.5163178400481	1086.021788523594	2293.420192299121	310.2376420698431	1146.438197040596	2278.962763349527	311.2144642287569	1095.029107101239	2301.684993658807	625.672631333891	1180.766380998276	2249.131492161837	598.0842659091628	1138.444845888173	2245.45336380299	720.0413460980321	1189.22402799848	2195.727694477414	694.560553516088	1149.705644793537	
2	0.006666666666666667	2249.064011710659	1007.332635286995	900.1817359557874	1663.490028501787	297.6886864769689	1018.111338350681	1687.01141547125	286.4773239951677	967.6159599942395	1706.703362271373	319.5532970662226	1009.211874307707	2196.892361246407	1083.349717212841	880.3647029546713	1796.277884278065	129.0333306355735	1003.179386734346	1747.475017411343	166.0217248208346	911.6286556076336	2095.193120113669	1040.709323453546	998.0173669714957	1796.420310587102	351.5043809642831	933.9966682614963	1779.160411843186	373.0186214493055	980.3596893645827	1845.452655132875	413.8225731699358	922.074809231123	1829.608173904898	435.6499739856531	968.7662191410541	2064.111417060882	663.7290315216936	893.8300799674928	2029.124381011753	677.17796938785	956.7344357562267	2080.666518990689	772.2193000653929	881.8538659931132	2050.792980809606	784.7378111526039	943.5840844104322	2257.84628817126	1008.426328161491	1132.367334036388	2454.940087240187	141.6935833186534	1119.144430195966	2292.283038944955	78.19921222662411	1066.041927819261	2316.742545789256	92.40009673649354	1118.732045515906	2299.322636951071	125.7469529596015	1074.475082944171	2190.766502306989	1076.106561910709	1182.920038267743	2501.420893739451	105.1042527190656	1073.4388520342	2453.012195105815	74.14136031299101	1168.16555497215	2094.600868696031	1035.206649444462	1071.636405794337	2312.648563859696	223.900291583005	1133.60972099521	2298.819462184222	228.7766776981689	1084.453049921495	2291.661370248297	305.4760359510126	1144.885201731681	2277.806436542134	306.2316307162982	1093.461037798473	2297.820626617271	621.9977711370759	1180.081003919215	2244.913637432879	595.259260508519	1137.605030440379	2242.795426461989	717.0693590461602	1188.604353562401	2192.941764467681	692.3491025105523	1148.957591675114	
3	0.01333333333333333	2249.95387438013	1005.638851517151	900.4118211668699	1661.395629115009	312.1755093198533	1017.673789328812	1684.562371659405	300.5269306145512	967.0991397674406	1705.523449101001	332.3222085095144	1009.077862965972	2195.910089763107	1081.513820579384	879.8110284902218	1787.413403028592	138.5634296757973	1001.353897660938	1740.380020205028	178.3635485626006	910.0623624292165	2095.705631082711	1038.12305274479	996.7834023702128	1796.423652864268	360.1638124125034	933.3625251690881	1780.173532077519	382.2137924124347	979.7521974211177	1848.3266776168	420.0026580749417	921.8471000238512	1833.533685892752	442.4724318646482	968.4508695825346	2070.260116288433	658.2139114557307	892.9055633812673	2035.661594990378	670.6559535336685	956.3795459952671	2084.705551529377	767.0202633791879	881.4097773093019	2054.834683958999	778.7164745086349	943.2829469147713	2257.686245891817	1006.413919911989	1133.060507922983	2455.212092102666	136.5178953834502	1118.493906050202	2292.738088820343	74.46466248878653	1063.731648751379	2317.070930908884	87.75943451046109	1116.756080872124	2299.852215668664	121.8550502958681	1072.962244504243	2190.385556132792	1073.472521148941	1182.774632232313	2501.841737171186	100.4898820507548	1072.148503192672	2453.054746726741	68.23501268051425	1166.206484355903	2094.879363726284	1032.662177438675	1070.497577824078	2311.814437782819	219.2775915834276	1132.256776947451	2298.459911835266	223.9799055412929	1082.889416574199	2289.590447348654	300.6349718018494	1143.372380039143	2276.26905238035	301.2213760753078	1091.933073483332	2294.017779015101	618.212014251794	1179.425269090884	2240.755408955892	592.2998971754045	1136.821683376847	2240.197759341722	713.9766874233082	1188.004313158609	2190.191811438481	689.9937181910594	1148.259587503841	
4	0.02	2250.755973357122	1003.64557824573	900.6674607402756	1660.117607789715	326.4259596080454	1017.169378336839	1682.90610609748	314.2835075139097	966.530686681568	1705.104157388214	344.8449793231049	1008.841086801046	2194.966065081248	1079.35923901282	879.3164511068364	1779.371725984878	148.0309711934545	999.6792970769308	1734.085037614913	190.4595053581273	908.5976872471707	2096.177413902435	1035.218469975043	995.6311391709941	1797.105734229704	368.5185641656266	932.6184096362977	1781.849019349174	391.1491769685945	978.9955402353903	1851.779249158283	425.8621423188982	921.4460571425265	1838.016389697963	448.9917964643932	967.9427540363808	2076.610793906743	652.468811793278	892.0376614660407	2042.309314868734	663.8990416946135	955.9887224550316	2088.783538109902	761.5670351839599	880.9317494007959	2058.890424599625	772.4223214306285	942.9367014373775	2257.546745600277	1004.127840405513	1133.77322935784	2454.231711119331	131.1721348998217	1117.466895281219	2291.782117133374	70.56300438828812	1061.459897096266	2316.050682255602	83.0781293056007	1114.746828108831	2299.049754054924	117.8131776273801	1071.33219777887	2189.971555682369	1070.609356529048	1182.675246913134	2500.916372421389	95.51059010224965	1070.527495924283	2451.787400221916	62.41926857341988	1164.135763720355	2095.134610049387	1029.804488992893	1069.443198788552	2310.076723075466	214.4673934055379	1130.841932257419	2297.047928470926	219.0871516580809	1081.33020605224	2286.942043016091	295.6574321791143	1141.925031061592	2274.016659973289	296.1739874911858	1090.475643321811	2290.360650262626	614.2172775147225	1178.804468568955	2236.740145625298	589.0860940292379	1136.124562545114	2237.732140904996	710.6493250498011	1187.434901398394	2187.531518396101	687.3597359891365	1147.647032423092	
